<svg width="85" height="34" fill="none" xmlns="http://www.w3.org/2000/svg"><path d="M42.821 14.135v1.48h-7.213V5h7.08v1.48h-5.421V9.5h4.695v1.39h-4.695v3.245h5.554zm4.232 1.629a6.1 6.1 0 01-1.867-.299 4.812 4.812 0 01-1.584-.882l.651-1.046c.464.338.923.598 1.378.777.454.17.918.254 1.392.254.484 0 .864-.095 1.14-.284a.912.912 0 00.43-.807c0-.33-.158-.568-.474-.718-.316-.15-.81-.314-1.481-.493-.484-.13-.899-.254-1.244-.374a3.19 3.19 0 01-.845-.418 1.466 1.466 0 01-.474-.554 1.776 1.776 0 01-.148-.762c0-.399.074-.753.223-1.062.157-.309.37-.568.636-.777a2.85 2.85 0 01.963-.493 4.09 4.09 0 011.185-.165c.583 0 1.126.09 1.63.27.503.179.952.438 1.347.777l-.696.986c-.72-.578-1.486-.867-2.296-.867-.414 0-.765.09-1.051.27-.277.169-.415.443-.415.822 0 .16.03.294.089.403a.77.77 0 00.281.284c.138.08.311.155.519.225.217.06.483.13.8.209.523.13.972.26 1.347.389.385.13.701.284.948.463.247.17.43.374.548.613.119.23.178.508.178.837 0 .748-.281 1.34-.844 1.78-.553.428-1.309.642-2.267.642zm4.03-4.066c0-.548.093-1.067.281-1.555a3.91 3.91 0 01.8-1.286 3.8 3.8 0 011.274-.867 4.044 4.044 0 011.658-.329c.8 0 1.487.18 2.06.538a3.295 3.295 0 011.303 1.406l-1.585.508a1.991 1.991 0 00-.756-.762 2.007 2.007 0 00-1.051-.284 2.2 2.2 0 00-.919.194 2.18 2.18 0 00-.725.553c-.208.23-.37.503-.489.822a3.027 3.027 0 00-.178 1.062c0 .378.06.732.178 1.061.128.32.296.598.504.837.217.24.464.429.74.569.287.13.588.194.904.194.197 0 .395-.025.592-.075.198-.06.375-.14.533-.24a1.85 1.85 0 00.43-.343c.128-.13.222-.269.281-.418l1.6.478c-.257.588-.686 1.071-1.289 1.45-.602.369-1.313.553-2.133.553-.602 0-1.15-.11-1.644-.329a4.007 4.007 0 01-1.273-.882 4.308 4.308 0 01-.815-1.3 4.299 4.299 0 01-.281-1.555zm10.835 4.066c-.375 0-.725-.06-1.051-.18a2.738 2.738 0 01-.83-.522 2.564 2.564 0 01-.548-.778 2.436 2.436 0 01-.192-.972c0-.368.079-.702.237-1.001.158-.3.38-.558.666-.778a3.378 3.378 0 011.037-.508c.405-.12.85-.18 1.333-.18.365 0 .726.035 1.081.105.356.06.677.145.963.254v-.538c0-.578-.163-1.026-.489-1.345-.326-.33-.795-.494-1.407-.494-.415 0-.824.08-1.23.24a5.922 5.922 0 00-1.228.657l-.504-1.046C60.753 8 61.79 7.66 62.866 7.66c1.067 0 1.896.274 2.489.822.592.549.888 1.336.888 2.363v2.825c0 .349.144.528.43.538v1.406a4.142 4.142 0 01-.74.074c-.317 0-.564-.08-.741-.239a1.044 1.044 0 01-.311-.613l-.045-.493a3.514 3.514 0 01-1.288 1.061 3.749 3.749 0 01-1.63.36zm.445-1.21c.395 0 .765-.07 1.11-.21.356-.15.633-.354.83-.613.207-.18.311-.369.311-.568V12.13a4.857 4.857 0 00-.889-.254 4.705 4.705 0 00-.903-.09c-.583 0-1.062.13-1.437.39-.365.248-.548.582-.548 1 0 .39.143.718.43.988.286.259.651.388 1.096.388zm10.256 1.21c-.622 0-1.17-.15-1.644-.448a3.333 3.333 0 01-1.126-1.166v4.65h-1.63V7.795h1.438V9.2a3.42 3.42 0 011.14-1.121 3.093 3.093 0 011.6-.419c.533 0 1.022.11 1.466.33.444.218.83.512 1.155.881.326.369.578.797.756 1.286a4.27 4.27 0 01.281 1.54 4.98 4.98 0 01-.252 1.6 4.056 4.056 0 01-.71 1.285 3.592 3.592 0 01-1.097.867c-.414.21-.874.314-1.377.314zm-.533-1.405c.345 0 .656-.075.933-.224.286-.15.528-.35.725-.598.208-.25.366-.534.475-.853a3.04 3.04 0 00.162-.986c0-.36-.064-.698-.192-1.017a2.555 2.555 0 00-.504-.837 2.263 2.263 0 00-1.718-.777c-.207 0-.424.04-.651.12a2.514 2.514 0 00-1.156.821c-.148.18-.252.38-.31.598v2.049c.098.239.226.463.384.672.158.21.331.389.519.539.197.149.41.269.636.358.228.09.46.135.697.135zm8.944 1.405c-.602 0-1.15-.104-1.643-.314a4.006 4.006 0 01-1.274-.882 4.12 4.12 0 01-.815-1.285 4.299 4.299 0 01-.281-1.555c0-.548.094-1.067.281-1.555.198-.499.47-.932.815-1.3.355-.38.78-.674 1.274-.883a4.044 4.044 0 011.658-.329c.603 0 1.146.11 1.63.33.493.218.913.512 1.259.881.345.359.607.783.785 1.27a4.099 4.099 0 01.237 2.109H78.75a2.8 2.8 0 00.237.942c.138.279.31.523.518.732.217.2.46.354.726.464.276.11.563.164.859.164.217 0 .43-.025.637-.075.217-.06.414-.14.592-.239.178-.11.336-.239.474-.388.138-.15.247-.314.326-.494l1.392.404c-.266.588-.71 1.071-1.333 1.45-.612.369-1.328.553-2.147.553zm2.356-4.65a2.55 2.55 0 00-.252-.911 2.158 2.158 0 00-.504-.703 2.188 2.188 0 00-.725-.463 2.35 2.35 0 00-.874-.165c-.306 0-.598.055-.874.165-.267.11-.504.264-.711.463-.207.19-.375.424-.504.703a2.774 2.774 0 00-.237.912h4.68zM35.608 30.565V19.95h4.577c.474 0 .908.1 1.303.3.405.199.75.463 1.037.792.286.318.508.687.666 1.106.168.409.252.827.252 1.256a3.63 3.63 0 01-.563 1.944 3.06 3.06 0 01-.651.732c-.257.2-.538.349-.844.448l2.473 4.037h-1.881l-2.28-3.693h-2.43v3.693h-1.659zm1.659-5.173h2.903c.237 0 .45-.05.637-.15.197-.109.365-.254.503-.433a2.31 2.31 0 00.326-.643c.08-.239.119-.493.119-.762 0-.27-.05-.523-.148-.763a1.985 1.985 0 00-.37-.628 1.56 1.56 0 00-.534-.418 1.264 1.264 0 00-.622-.165h-2.814v3.962zm11.19 5.322c-.613 0-1.166-.11-1.66-.329a3.876 3.876 0 01-1.243-.882 3.91 3.91 0 01-.8-1.285 4.377 4.377 0 01-.282-1.555c0-.538.094-1.052.282-1.54.188-.498.454-.932.8-1.3a4.053 4.053 0 011.259-.883 4.006 4.006 0 011.644-.329c.602 0 1.145.11 1.629.33.494.219.913.513 1.259.881.355.37.627.803.815 1.301.187.488.28 1.002.28 1.54s-.093 1.056-.28 1.555a3.79 3.79 0 01-.815 1.285 3.833 3.833 0 01-1.26.882 3.903 3.903 0 01-1.628.33zm-2.31-4.036c0 .378.058.727.177 1.046.118.32.281.598.489.837.207.23.449.414.725.554a2.2 2.2 0 00.919.194c.326 0 .627-.065.903-.194a2.31 2.31 0 00.74-.568c.208-.24.371-.519.49-.838a2.99 2.99 0 00.177-1.046 2.93 2.93 0 00-.178-1.032 2.665 2.665 0 00-.488-.852 2.133 2.133 0 00-.74-.553 1.976 1.976 0 00-.904-.21c-.316 0-.617.07-.904.21a2.36 2.36 0 00-.725.568 2.89 2.89 0 00-.504.852 2.939 2.939 0 00-.178 1.032zm11.22 4.036c-.613 0-1.165-.11-1.66-.329a3.876 3.876 0 01-1.243-.882 3.91 3.91 0 01-.8-1.285 4.377 4.377 0 01-.282-1.555c0-.538.094-1.052.282-1.54.187-.498.454-.932.8-1.3a4.053 4.053 0 011.259-.883 4.006 4.006 0 011.644-.329c.602 0 1.145.11 1.629.33a3.841 3.841 0 012.073 2.182c.188.488.282 1.002.282 1.54s-.094 1.056-.282 1.555a3.79 3.79 0 01-.814 1.285 3.833 3.833 0 01-1.26.882 3.903 3.903 0 01-1.628.33zm-2.311-4.036c0 .378.06.727.178 1.046.118.32.281.598.489.837.207.23.449.414.725.554a2.2 2.2 0 00.919.194c.326 0 .627-.065.903-.194a2.31 2.31 0 00.74-.568c.208-.24.37-.519.49-.838a2.99 2.99 0 00.177-1.046c0-.369-.06-.713-.178-1.032a2.665 2.665 0 00-.488-.852 2.133 2.133 0 00-.74-.553 1.976 1.976 0 00-.904-.21c-.316 0-.617.07-.904.21a2.36 2.36 0 00-.726.568 2.9 2.9 0 00-.503.852 2.939 2.939 0 00-.178 1.032zm19.589 3.887h-1.63v-4.38c0-.728-.118-1.261-.355-1.6-.237-.34-.582-.509-1.037-.509-.464 0-.888.175-1.273.524-.376.339-.647.782-.815 1.33v4.635h-1.63v-4.38c0-.738-.118-1.271-.355-1.6-.237-.34-.577-.509-1.022-.509-.464 0-.888.17-1.274.509-.385.339-.661.782-.829 1.33v4.65h-1.63v-7.82h1.482v1.57c.306-.548.706-.966 1.2-1.255.503-.3 1.076-.449 1.718-.449.642 0 1.145.17 1.51.509.376.338.608.762.697 1.27.326-.578.735-1.016 1.229-1.315.494-.31 1.057-.464 1.689-.464.454 0 .829.09 1.125.27.306.169.548.398.726.687.178.29.301.628.37 1.017.07.378.104.782.104 1.21v4.77z" fill="#fff"/><path fill="#fff" d="M29.21 14.143h13.685v1.464H29.21zm.004 5.777h10.163v1.46H29.214z"/><path fill-rule="evenodd" clip-rule="evenodd" d="M18.336 27.56l-10.54-5.51.182-.345 10.54 5.51-.182.345zm6.265-5.398V10.698h.393v11.464H24.6zm-.196-7.126l-5.927 3.5-.169-.36 5.896-3.476.2.336zm-.594-4.716l-5.823-3.348-7.315 4.285 5.697 3.296 7.441-4.233zm-5.825-3.8l-8.09 4.74 6.472 3.744 8.233-4.684-.34-.192-6.275-3.608z" fill="#fff"/><path d="M7.857 22.073l-.167-.097-.098-7.46L2.69 11.64m5.167 10.434l6.47-3.71m-6.47 3.71l6.47 3.391m.325-7.288v7.407l-.326-.119m.326-7.288L2.69 11.26V9.3l.294-.195L16.417 1.45l13.224 7.947v4.728h.427l.015-4.99L16.417 1 2.777 8.772l-.48.319v16.09L16.712 33l1.47-.802v.008l.288-.165.153-.083v-.005l11.41-6.729.016-4.795h-.408v4.57l-11.067 6.533v-3.95l8.09-4.532-8.355-4.874m-3.657 0l-.326.187m3.983-.187l-.078.046v13.505l-1.52.828L2.69 24.95V11.64m15.619 6.536l.17.36 5.926-3.5-.2-.336-5.896 3.476zM2.689 11.64v-.147m11.637 6.87v7.101m9.935-15.336L17.986 6.52l-8.09 4.74 6.472 3.744 8.233-4.684-.34-.192zM13.87 18.175l-5.793 3.322-.088-6.723 5.881 3.4zm12.029 4.886l-7.275 4.033v-8.287l7.275 4.254zm-7.91-16.09l5.823 3.35-7.441 4.232-5.697-3.296 7.315-4.285zM7.795 22.052l10.54 5.509.183-.345-10.54-5.51-.183.346zm16.806-11.353v11.464h.393V10.698H24.6z" stroke="#fff" stroke-width="1.175"/></svg>